# File created by Blade
# Date/Time:  Tue Apr 07 20:29:34 2015
# Frame Rate: 120.000 fps
#------------------------------------------------------
:FULLY-SPECIFIED
:DEGREES
2984
root 2.706018 33.228948 -5.681968 14.767151 -38.726393 -30.527119
Spine 8.983810 15.501563 19.534073
Head 8.308827 9.450197 7.807237
LeftShoulder -20.732877 37.160902 24.152877
LeftArm 53.937550 -63.179402 -54.090039
LeftForeArm 5.088363 -0.000000 9.659031
LeftHand 9.274249 0.000000 2.030601
LeftHandThumb1 -26.253704 0.000000 33.147579
RightShoulder 2.114716 9.116133 -21.047254
RightArm 16.491752 15.034882 66.603927
RightForeArm 3.051298 -0.000000 26.361801
RightHand 1.871611 -0.000000 12.020290
RightHandThumb1 -24.326973 -0.000000 -32.862282
LeftUpLeg -4.631495 10.784378 15.687069
LeftLeg 17.448977 -0.000000 -0.000000
LeftFoot -17.851551 32.936035 -7.303730
LeftToeBase -9.218178 -0.000000 0.000000
RightUpLeg -87.882877 -37.496229 2.224717
RightLeg 78.046592 -0.000000 -0.000000
RightFoot 40.512195 -22.711563 3.250829
RightToeBase 32.286708 -0.000000 -0.000000
2985
root 2.704756 33.208832 -5.673441 14.060375 -38.974056 -30.085294
Spine 9.484434 15.373372 19.307962
Head 8.535736 9.486552 7.636032
LeftShoulder -20.591920 37.212017 24.133135
LeftArm 53.897247 -63.008221 -53.518289
LeftForeArm 5.366259 -0.000000 9.620318
LeftHand 9.155721 -0.000000 2.000200
LeftHandThumb1 -26.253704 0.000000 33.147579
RightShoulder 2.153806 8.963495 -21.225339
RightArm 16.735716 14.783624 66.881838
RightForeArm 3.593682 -0.000000 26.180084
RightHand 1.810132 -0.000000 12.179863
RightHandThumb1 -24.326973 -0.000000 -32.862282
LeftUpLeg -4.038557 11.032872 15.348289
LeftLeg 17.302085 -0.000000 -0.000000
LeftFoot -18.173198 32.586186 -7.316612
LeftToeBase -9.631920 -0.000000 0.000000
RightUpLeg -88.969825 -37.919763 3.254907
RightLeg 78.366427 -0.000000 -0.000000
RightFoot 40.434931 -22.673451 3.508505
RightToeBase 32.909259 -0.000000 -0.000000
2986
root 2.698921 33.189249 -5.663946 13.395263 -39.184876 -29.649196
Spine 9.903916 15.152240 19.061033
Head 8.833373 9.595992 7.453126
LeftShoulder -20.489016 37.192650 24.126462
LeftArm 53.556896 -62.766329 -52.739727
LeftForeArm 5.567808 -0.000000 9.633576
LeftHand 9.213265 -0.000000 1.860541
LeftHandThumb1 -26.253704 0.000000 33.147579
RightShoulder 2.295269 8.875696 -21.369461
RightArm 16.989311 14.548650 67.160605
RightForeArm 3.925071 0.000000 25.903889
RightHand 1.739411 -0.000000 12.449166
RightHandThumb1 -24.326973 -0.000000 -32.862282
LeftUpLeg -3.480510 11.350480 15.036361
LeftLeg 17.148120 -0.000000 -0.000000
LeftFoot -18.582624 32.116350 -7.386765
LeftToeBase -10.153731 -0.000000 0.000000
RightUpLeg -90.168458 -38.348586 4.339231
RightLeg 78.695528 -0.000000 -0.000000
RightFoot 40.408279 -22.562643 3.500749
RightToeBase 32.434395 -0.000000 -0.000000
2987
root 2.692355 33.167483 -5.649180 12.753016 -39.392939 -29.226490
Spine 10.294568 14.949908 18.839761
Head 9.162307 9.709918 7.192157
LeftShoulder -20.408278 37.184536 24.087590
LeftArm 53.424985 -62.549093 -52.195967
LeftForeArm 5.886282 -0.000000 9.623457
LeftHand 9.374361 -0.000000 1.833507
LeftHandThumb1 -26.253704 0.000000 33.147579
RightShoulder 2.387610 8.864634 -21.515455
RightArm 17.262550 14.221566 67.422071
RightForeArm 4.166999 0.000000 25.567957
RightHand 1.519463 -0.000000 12.672255
RightHandThumb1 -24.326973 -0.000000 -32.862282
LeftUpLeg -2.959318 11.627455 14.738922
LeftLeg 17.072532 -0.000000 -0.000000
LeftFoot -19.048992 31.604912 -7.460371
LeftToeBase -10.201321 -0.000000 0.000000
RightUpLeg -91.457626 -38.782682 5.476790
RightLeg 79.013429 -0.000000 -0.000000
RightFoot 40.312190 -22.614753 3.749441
RightToeBase 33.409830 -0.000000 -0.000000
2988
root 2.688023 33.140442 -5.632611 12.094708 -39.603777 -28.745919
Spine 10.661421 14.752863 18.570489
Head 9.495575 9.799001 6.912763
LeftShoulder -20.361563 37.121194 24.055889
LeftArm 53.231217 -62.242129 -51.623065
LeftForeArm 6.090300 -0.000000 9.651888
LeftHand 9.422792 -0.000000 2.051258
LeftHandThumb1 -26.253704 0.000000 33.147579
RightShoulder 2.513887 8.943378 -21.648849
RightArm 17.476415 13.874676 67.633855
RightForeArm 4.234437 -0.000000 25.167760
RightHand 1.445607 -0.000000 12.895807
RightHandThumb1 -24.326973 -0.000000 -32.862282
LeftUpLeg -2.487820 11.706605 14.377882
LeftLeg 17.065432 -0.000000 -0.000000
LeftFoot -19.663249 31.125127 -7.719541
LeftToeBase -9.880424 -0.000000 0.000000
RightUpLeg -92.837431 -39.172939 6.595366
RightLeg 79.302093 -0.000000 -0.000000
RightFoot 40.167318 -22.950005 3.920008
RightToeBase 33.883975 -0.000000 -0.000000
2989
root 2.681794 33.114280 -5.617579 11.436455 -39.860469 -28.307826
Spine 11.101557 14.614001 18.347665
Head 9.763772 9.873963 6.563531
LeftShoulder -20.337306 37.051189 23.991311
LeftArm 53.201484 -62.006182 -51.323105
LeftForeArm 6.238426 -0.000000 9.782831
LeftHand 9.434283 -0.000000 2.273712
LeftHandThumb1 -26.253704 0.000000 33.147579
RightShoulder 2.604076 9.052959 -21.771281
RightArm 17.753782 13.512287 67.833430
RightForeArm 4.218060 0.000000 24.730619
RightHand 1.371074 0.000000 13.419794
RightHandThumb1 -24.326973 -0.000000 -32.862282
LeftUpLeg -1.966442 11.537109 14.044601
LeftLeg 17.044068 -0.000000 -0.000000
LeftFoot -20.264715 30.616613 -8.269976
LeftToeBase -10.242438 -0.000000 0.000000
RightUpLeg -94.240985 -39.473921 7.689672
RightLeg 79.618579 -0.000000 -0.000000
RightFoot 40.089462 -23.114847 4.089861
RightToeBase 33.923298 -0.000000 -0.000000
2990
root 2.675510 33.085863 -5.604798 10.839023 -40.146084 -27.947569
Spine 11.550610 14.510565 18.194453
Head 10.019340 9.996876 6.190201
LeftShoulder -20.205297 36.549494 24.193272
LeftArm 52.695936 -61.507110 -50.852707
LeftForeArm 6.457021 -0.000000 10.009729
LeftHand 9.488444 -0.000000 2.418053
LeftHandThumb1 -26.253704 0.000000 33.147579
RightShoulder 2.750297 9.241498 -21.896895
RightArm 17.984528 13.102289 67.961673
RightForeArm 4.147709 -0.000000 24.241609
RightHand 1.212972 0.000000 13.704712
RightHandThumb1 -24.326973 -0.000000 -32.862282
LeftUpLeg -1.527616 11.332903 13.758160
LeftLeg 17.208764 -0.000000 -0.000000
LeftFoot -20.917453 29.864779 -8.949780
LeftToeBase -10.670504 -0.000000 0.000000
RightUpLeg -95.690066 -39.726788 8.873500
RightLeg 79.874213 -0.000000 -0.000000
RightFoot 40.041312 -23.128284 4.198247
RightToeBase 34.030417 -0.000000 -0.000000
